<svg xmlns="http://www.w3.org/2000/svg" width="1080" height="1080" viewBox="0 0 1080 1080">
<defs>
<mask id="holeMask">
<rect width="1080" height="1080" fill="white"/>
<path d="M 545.0 773.5 L 521.0 769.5 L 503.0 762.5 L 356.0 677.5 L 343.5 666.0 L 336.5 656.0 L 329.5 639.0 L 327.5 624.0 L 327.5 455.0 L 329.5 440.0 L 336.5 422.0 L 343.5 412.0 L 355.0 400.5 L 365.0 393.5 L 451.0 345.5 L 504.0 313.5 L 526.0 304.5 L 541.0 302.5 L 558.0 304.5 L 585.0 316.5 L 723.0 396.5 L 737.5 409.0 L 746.5 422.0 L 753.5 439.0 L 756.5 460.0 L 756.5 619.0 L 755.5 630.0 L 750.5 647.0 L 741.5 663.0 L 731.0 674.5 L 710.0 688.5 L 678.0 705.5 L 580.0 763.5 L 560.0 771.5 L 545.0 773.5 Z" fill="black" fill-rule="evenodd"/>
</mask>
</defs>
<g mask="url(#holeMask)">
<path d="M 553.0 967.5 L 524.0 966.5 L 498.0 957.5 L 196.0 783.5 L 179.0 770.5 L 164.5 754.0 L 155.5 737.0 L 149.5 708.0 L 149.5 368.0 L 153.5 342.0 L 164.5 318.0 L 178.0 302.5 L 193.0 291.5 L 304.0 229.5 L 490.0 121.5 L 514.0 110.5 L 538.0 106.5 L 569.0 110.5 L 592.0 120.5 L 892.0 292.5 L 904.0 301.5 L 920.5 321.0 L 930.5 344.0 L 934.5 370.0 L 934.5 704.0 L 930.5 730.0 L 921.5 751.0 L 902.0 773.5 L 883.0 786.5 L 607.0 945.5 L 578.0 960.5 L 553.0 967.5 Z M 548.5 874.0 L 558.0 871.5 L 579.0 860.5 L 799.0 734.5 L 823.0 719.5 L 838.5 704.0 L 843.5 692.0 L 844.5 684.0 L 844.5 390.0 L 843.5 381.0 L 838.5 369.0 L 820.0 351.5 L 566.0 205.5 L 547.0 198.5 L 537.0 198.5 L 515.0 207.5 L 269.0 348.5 L 252.0 360.5 L 244.5 370.0 L 239.5 383.0 L 239.5 686.0 L 242.5 698.0 L 246.5 705.0 L 259.0 718.5 L 268.0 724.5 L 515.0 866.5 L 535.0 874.5 L 548.5 874.0 Z" fill="#0f172a" fill-rule="evenodd"/>
<path d="M 548.0 874.5 L 535.0 874.5 L 515.0 866.5 L 268.0 724.5 L 259.0 718.5 L 246.5 705.0 L 242.5 698.0 L 239.5 686.0 L 239.5 383.0 L 244.5 370.0 L 252.0 360.5 L 269.0 348.5 L 515.0 207.5 L 537.0 198.5 L 547.0 198.5 L 566.0 205.5 L 820.0 351.5 L 838.5 369.0 L 843.5 381.0 L 844.5 390.0 L 844.5 684.0 L 843.5 692.0 L 838.5 704.0 L 823.0 719.5 L 799.0 734.5 L 579.0 860.5 L 558.0 871.5 L 548.0 874.5 Z M 545.5 773.0 L 560.0 771.5 L 580.0 763.5 L 678.0 705.5 L 710.0 688.5 L 731.0 674.5 L 741.5 663.0 L 750.5 647.0 L 755.5 630.0 L 756.5 619.0 L 756.5 460.0 L 753.5 439.0 L 746.5 422.0 L 737.5 409.0 L 723.0 396.5 L 585.0 316.5 L 558.0 304.5 L 541.0 302.5 L 526.0 304.5 L 504.0 313.5 L 451.0 345.5 L 365.0 393.5 L 355.0 400.5 L 336.5 422.0 L 329.5 440.0 L 327.5 455.0 L 327.5 624.0 L 329.5 639.0 L 336.5 656.0 L 343.5 666.0 L 356.0 677.5 L 503.0 762.5 L 525.0 770.5 L 545.5 773.0 Z" fill="#ea8538" fill-rule="evenodd"/>
</g>
</svg>
